<svg width="1201" height="174" viewBox="0 0 1201 174" fill="none" xmlns="http://www.w3.org/2000/svg">
<path d="M126.737 98.7847L68.723 124.977V78.3521L126.762 52.1597L126.737 98.7847Z" fill="#515DDD" style="fill:#515DDD;fill:color(display-p3 0.3176 0.3647 0.8667);fill-opacity:1;"/>
<path d="M57.5231 173.978L0 144.485V44.5501L57.5231 73.202V173.978Z" fill="#28ACE2" style="fill:#28ACE2;fill:color(display-p3 0.1569 0.6745 0.8863);fill-opacity:1;"/>
<path d="M68.6989 67.4842L43.1794 54.8925V0.132324L126.738 41.3339L68.6989 67.4842Z" fill="#5E43DB" style="fill:#5E43DB;fill:color(display-p3 0.3686 0.2627 0.8588);fill-opacity:1;"/>
<path d="M169.794 38.7693H218.205C227.513 38.7693 235.447 40.2828 241.98 43.3099C248.538 46.3369 253.524 50.5201 256.987 55.8805C260.45 61.2199 262.17 67.4002 262.17 74.3582C262.17 81.3162 260.401 87.4754 256.889 92.8148C253.377 98.1542 248.292 102.295 241.636 105.28C234.98 108.265 226.948 109.737 217.517 109.737H186.668V91.9529H213.317C218.303 91.9529 222.429 91.2172 225.696 89.7247C228.963 88.2322 231.394 86.1721 233.015 83.5234C234.636 80.8747 235.447 77.8267 235.447 74.3792C235.447 70.9317 234.636 67.8416 233.015 65.235C231.394 62.6283 228.963 60.5893 225.671 59.1388C222.405 57.6884 218.254 56.9526 213.219 56.9526H195.731V143.812H169.794V38.7693Z" fill="white" style="fill:white;fill-opacity:1;"/>
<path d="M304.096 38.7693V143.77H278.577V38.7693H304.096Z" fill="white" style="fill:white;fill-opacity:1;"/>
<path d="M350.713 145.263C344.843 145.263 339.612 144.38 335.019 142.614C330.426 140.848 326.791 138.242 324.138 134.773C321.485 131.305 320.159 126.974 320.159 121.782C320.159 117.41 321.092 113.731 322.983 110.767C324.85 107.803 327.405 105.407 330.647 103.599C333.889 101.791 337.573 100.425 341.699 99.4996C345.826 98.5747 350.173 97.923 354.717 97.5446C360.071 97.0612 364.37 96.6197 367.661 96.1783C370.928 95.7578 373.31 95.1062 374.784 94.2653C376.257 93.4035 376.994 92.1422 376.994 90.4815V90.1662C376.994 86.929 375.815 84.4064 373.433 82.6196C371.05 80.8328 367.685 79.9499 363.338 79.9499C358.745 79.9499 355.085 80.8118 352.384 82.5355C349.657 84.2593 347.864 86.4244 347.005 89.0311L323.401 87.3914C324.605 82.5986 326.962 78.4574 330.475 74.9679C333.987 71.4573 338.531 68.7666 344.106 66.8747C349.682 64.9828 356.142 64.0369 363.485 64.0369C368.594 64.0369 373.507 64.5414 378.198 65.5714C382.889 66.6014 387.065 68.178 390.724 70.3432C394.384 72.4874 397.258 75.2622 399.37 78.6256C401.482 81.989 402.538 86.025 402.538 90.6917V143.812H378.345V132.902H377.633C376.159 135.362 374.17 137.527 371.714 139.398C369.233 141.269 366.261 142.719 362.798 143.749C359.335 144.8 355.306 145.305 350.763 145.305L350.713 145.263ZM358.008 130.191C361.766 130.191 365.082 129.56 367.956 128.278C370.829 126.995 373.089 125.272 374.735 123.064C376.38 120.878 377.191 118.398 377.191 115.623V107.256C376.38 107.698 375.3 108.097 373.924 108.455C372.549 108.812 371.001 109.148 369.282 109.422C367.563 109.716 365.843 109.968 364.124 110.199C362.405 110.431 360.857 110.62 359.457 110.788C356.461 111.166 353.857 111.755 351.598 112.575C349.363 113.395 347.619 114.488 346.391 115.875C345.163 117.263 344.524 118.986 344.524 121.025C344.524 123.989 345.801 126.26 348.331 127.815C350.861 129.371 354.103 130.149 358.008 130.149V130.191Z" fill="white" style="fill:white;fill-opacity:1;"/>
<path d="M471.286 65.0247V81.4213H415.875V65.0247H471.286ZM453.97 46.1477V119.575C453.97 121.593 454.339 123.148 455.051 124.262C455.763 125.377 456.77 126.154 458.072 126.596C459.374 127.037 460.872 127.268 462.591 127.268C463.795 127.268 464.999 127.184 466.177 126.995C467.381 126.806 468.29 126.659 468.928 126.554L472.932 142.803C471.655 143.139 469.862 143.539 467.528 144.001C465.22 144.464 462.395 144.737 459.079 144.842C452.939 145.052 447.56 144.338 442.942 142.74C438.325 141.142 434.739 138.641 432.184 135.257C429.63 131.872 428.377 127.605 428.402 122.434V46.1477H453.97Z" fill="white" style="fill:white;fill-opacity:1;"/>
<path d="M537.357 65.025V81.4215H480.571V65.025H537.357ZM493.564 143.77V59.3283C493.564 53.6105 494.866 48.8807 497.494 45.1179C500.097 41.3551 503.683 38.5383 508.252 36.6674C512.795 34.7965 517.978 33.8506 523.775 33.8506C527.68 33.8506 531.266 34.1028 534.532 34.6284C537.799 35.1329 540.206 35.5953 541.803 36.0158L537.259 52.4123C536.252 52.139 535.024 51.8868 533.575 51.6345C532.125 51.4033 530.627 51.2772 529.104 51.2772C525.346 51.2772 522.743 52.0129 521.245 53.5054C519.771 54.9979 519.034 57.079 519.034 59.7277V143.749H493.564V143.77Z" fill="white" style="fill:white;fill-opacity:1;"/>
<path d="M591.269 145.305C581.961 145.305 573.929 143.602 567.15 140.196C560.371 136.791 555.164 132.04 551.48 125.944C547.796 119.848 545.978 112.764 545.978 104.692C545.978 96.6195 547.82 89.4303 551.48 83.3342C555.164 77.238 560.371 72.4872 567.15 69.0818C573.929 65.6763 581.961 63.9736 591.269 63.9736C600.578 63.9736 608.61 65.6763 615.389 69.0818C622.168 72.4872 627.375 77.238 631.059 83.3342C634.743 89.4303 636.561 96.5565 636.561 104.692C636.561 112.827 634.719 119.848 631.059 125.944C627.375 132.04 622.168 136.791 615.389 140.196C608.61 143.602 600.578 145.305 591.269 145.305ZM591.392 128.383C595.617 128.383 599.154 127.353 602.003 125.271C604.827 123.211 606.989 120.373 608.438 116.779C609.887 113.184 610.624 109.106 610.624 104.524C610.624 99.9409 609.887 95.8628 608.438 92.2682C606.989 88.6735 604.827 85.8357 602.003 83.7546C599.178 81.6735 595.641 80.6224 591.392 80.6224C587.143 80.6224 583.533 81.6735 580.634 83.7546C577.736 85.8357 575.575 88.6735 574.101 92.2682C572.652 95.8628 571.915 99.9409 571.915 104.524C571.915 109.106 572.652 113.184 574.101 116.779C575.55 120.373 577.736 123.19 580.634 125.271C583.533 127.331 587.119 128.383 591.392 128.383Z" fill="white" style="fill:white;fill-opacity:1;"/>
<path d="M653.214 143.77V65.0251H677.947V78.7729H678.905C680.575 73.896 683.4 70.1753 687.354 67.6737C691.309 65.1512 695.853 63.9109 701.01 63.9109C702.288 63.9109 703.663 63.974 705.137 64.1212C706.61 64.2683 707.912 64.4365 709.042 64.6887V84.0703C707.839 83.755 706.193 83.4817 704.081 83.2504C701.968 83.0192 700.028 82.8931 698.26 82.8931C694.502 82.8931 691.161 83.5868 688.214 84.9742C685.267 86.3616 682.958 88.2745 681.263 90.734C679.568 93.1935 678.709 96.0313 678.709 99.2476V143.791H653.189L653.214 143.77Z" fill="white" style="fill:white;fill-opacity:1;"/>
<path d="M722.158 65.0248H746.474V78.9198H747.554C749.47 74.3162 752.663 70.6585 757.133 68.0098C761.604 65.3401 766.958 64.0158 773.197 64.0158C779.435 64.0158 784.888 65.3611 789.309 68.0308C793.73 70.7215 796.702 74.3372 798.176 78.9198H799.133C801 74.4002 804.414 70.7846 809.351 68.0729C814.288 65.3611 820.134 63.9948 826.863 63.9948C835.46 63.9948 842.436 66.3281 847.79 70.9948C853.169 75.6615 855.846 82.2622 855.846 90.8178V143.77H830.376V95.1061C830.376 90.7337 829.025 87.4544 826.299 85.2682C823.572 83.082 820.183 81.9889 816.106 81.9889C811.463 81.9889 807.853 83.2502 805.274 85.7517C802.67 88.2742 801.369 91.5746 801.369 95.6737V143.77H776.635V94.6647C776.635 90.7968 775.358 87.7277 772.779 85.4364C770.2 83.1451 766.811 82.0099 762.635 82.0099C759.811 82.0099 757.256 82.6195 754.997 83.8388C752.737 85.058 750.944 86.7397 749.642 88.9049C748.316 91.07 747.677 93.6136 747.677 96.5145V143.791H722.158V65.0248Z" fill="white" style="fill:white;fill-opacity:1;"/>
<path d="M921.104 145.199C912.163 145.199 904.205 143.874 897.23 141.226C890.254 138.577 884.777 134.919 880.749 130.253C876.745 125.586 874.658 120.205 874.56 114.087H900.668C900.816 116.652 901.823 118.901 903.64 120.835C905.458 122.769 907.89 124.262 910.911 125.313C913.956 126.364 917.37 126.91 921.153 126.91C924.935 126.91 928.595 126.322 931.641 125.123C934.686 123.925 937.044 122.265 938.763 120.141C940.483 118.018 941.342 115.58 941.342 112.805C941.342 110.03 940.434 107.508 938.616 105.343C936.798 103.177 934.195 101.475 930.83 100.234C927.465 98.9941 923.462 98.3845 918.819 98.3845H907.374V82.0721H918.819C922.725 82.0721 926.188 81.4835 929.209 80.3273C932.23 79.1712 934.563 77.5525 936.258 75.4924C937.928 73.4324 938.763 71.0149 938.763 68.2401C938.763 65.4653 938.027 63.3002 936.577 61.3031C935.128 59.3061 933.09 57.7295 930.462 56.6154C927.833 55.4803 924.812 54.9337 921.325 54.9337C917.837 54.9337 914.595 55.4803 911.672 56.5524C908.749 57.6244 906.416 59.159 904.672 61.135C902.904 63.111 901.97 65.4443 901.847 68.114H876.991C877.114 62.0599 879.128 56.7415 883.033 52.1169C886.939 47.4922 892.219 43.8976 898.875 41.27C905.532 38.6423 913.047 37.339 921.423 37.339C929.798 37.339 937.29 38.6633 943.651 41.291C950.013 43.9186 954.949 47.4712 958.486 51.9277C962.023 56.3842 963.767 61.3872 963.718 66.9158C963.767 72.8017 961.63 77.6997 957.332 81.6306C953.034 85.5616 947.458 88.0631 940.581 89.1142V89.934C949.595 90.922 956.497 93.5917 961.213 97.9641C965.928 102.337 968.286 107.76 968.262 114.298C968.311 120.289 966.297 125.586 962.244 130.253C958.191 134.898 952.616 138.556 945.493 141.226C938.395 143.895 930.241 145.22 921.055 145.22L921.104 145.199Z" fill="#267BDD" style="fill:#267BDD;fill:color(display-p3 0.1481 0.4834 0.8667);fill-opacity:1;"/>
<path d="M1027.33 145.199C1021.02 145.157 1014.95 144.253 1009.08 142.488C1003.24 140.701 997.981 137.821 993.363 133.827C988.721 129.833 985.062 124.535 982.36 117.935C979.658 111.334 978.307 103.241 978.307 93.6343C978.356 84.8264 979.535 76.9224 981.869 69.9644C984.202 63.0064 987.567 57.0994 991.939 52.2435C996.311 47.3876 1001.54 43.6879 1007.66 41.1443C1013.77 38.6008 1020.63 37.3185 1028.22 37.3185C1036.4 37.3185 1043.64 38.6849 1049.9 41.3966C1056.17 44.1083 1061.23 47.787 1065.03 52.4537C1068.84 57.0994 1071.15 62.3127 1071.96 68.0935H1046.39C1045.38 64.4358 1043.3 61.5559 1040.1 59.4748C1036.91 57.3937 1032.96 56.3427 1028.24 56.3427C1020.26 56.3427 1014.19 59.3066 1010.07 65.2556C1005.94 71.2046 1003.83 79.2768 1003.75 89.5141H1004.59C1006.43 86.403 1008.91 83.7543 1012.05 81.5471C1015.2 79.3398 1018.76 77.6581 1022.79 76.481C1026.79 75.3038 1031.04 74.7152 1035.51 74.7152C1042.78 74.7152 1049.24 76.1867 1054.91 79.1086C1060.59 82.0306 1065.06 86.0456 1068.33 91.1327C1071.59 96.2199 1073.24 102.043 1073.24 108.622C1073.24 115.728 1071.32 122.055 1067.47 127.583C1063.61 133.112 1058.23 137.442 1051.35 140.575C1044.48 143.707 1036.47 145.241 1027.36 145.22L1027.33 145.199ZM1027.21 127.773C1031.21 127.773 1034.77 126.953 1037.94 125.313C1041.09 123.674 1043.57 121.445 1045.36 118.649C1047.15 115.854 1048.06 112.7 1048.06 109.211C1048.06 105.721 1047.18 102.589 1045.38 99.8355C1043.62 97.0607 1041.16 94.8535 1038.04 93.2138C1034.92 91.5742 1031.36 90.7543 1027.38 90.7543C1024.38 90.7543 1021.61 91.2378 1019.08 92.1838C1016.55 93.1508 1014.31 94.4751 1012.42 96.1778C1010.53 97.8805 1009.03 99.8565 1007.95 102.106C1006.87 104.355 1006.33 106.73 1006.33 109.253C1006.33 112.637 1007.24 115.728 1009.06 118.523C1010.88 121.319 1013.36 123.568 1016.48 125.25C1019.62 126.932 1023.18 127.773 1027.16 127.773H1027.21Z" fill="#4574DE" style="fill:#4574DE;fill:color(display-p3 0.2706 0.4549 0.8706);fill-opacity:1;"/>
<path d="M1179.37 72.2557C1169.86 72.2557 1162.76 69.7962 1158.1 64.8562C1153.43 59.9163 1151.1 53.9883 1151.1 47.0303C1151.1 44.6549 1151.39 42.4056 1151.93 40.2614C1146.26 38.3065 1139.95 37.3185 1132.97 37.3185C1122.7 37.3185 1113.86 39.4206 1106.47 43.6459C1099.05 47.8711 1093.38 54.0093 1089.4 62.0814C1085.42 70.1536 1083.43 79.9074 1083.43 91.364C1083.38 102.842 1085.35 112.679 1089.33 120.836C1093.3 129.013 1098.98 135.235 1106.4 139.545C1113.81 143.854 1122.66 146.019 1132.97 146.061C1143.26 146.061 1152.13 143.917 1159.5 139.608C1166.89 135.298 1172.56 129.055 1176.54 120.899C1180.52 112.721 1182.51 102.884 1182.51 91.364C1182.51 84.3429 1181.8 77.9735 1180.3 72.2347C1179.98 72.2347 1179.69 72.2347 1179.34 72.2347L1179.37 72.2557ZM1149.8 118.586C1145.6 124.641 1140 127.668 1132.97 127.668C1128.3 127.668 1124.23 126.322 1120.74 123.653C1117.28 120.962 1114.57 116.926 1112.68 111.544C1110.79 106.163 1109.83 99.4361 1109.83 91.364C1109.88 79.445 1112 70.4899 1116.2 64.4989C1120.4 58.5078 1125.97 55.5228 1132.97 55.5228C1137.64 55.5228 1141.72 56.8472 1145.15 59.5169C1148.62 62.1866 1151.29 66.1596 1153.19 71.4569C1155.08 76.7542 1156.03 83.3759 1156.03 91.3429C1156.08 103.451 1154 112.511 1149.8 118.565V118.586Z" fill="#5060DD" style="fill:#5060DD;fill:color(display-p3 0.3137 0.3765 0.8667);fill-opacity:1;"/>
<path d="M1195.2 59.4687C1191.79 63.0633 1186.61 64.8712 1179.66 64.8712C1172.71 64.8712 1167.52 63.0633 1164.11 59.4687C1160.69 55.8741 1159 51.5227 1159 46.4566C1159 41.3905 1160.69 37.1442 1164.11 33.4865C1167.52 29.8288 1172.71 28 1179.66 28C1186.61 28 1191.79 29.8288 1195.2 33.4865C1198.62 37.1442 1200.31 41.4746 1200.31 46.4566C1200.31 51.4386 1198.62 55.8741 1195.2 59.4687ZM1186.75 54.4657C1188.4 52.5948 1189.24 49.9041 1189.24 46.4566C1189.24 43.0091 1188.4 40.3184 1186.75 38.4475C1185.11 36.5766 1182.73 35.6517 1179.63 35.6517C1176.54 35.6517 1174.15 36.5766 1172.48 38.4475C1170.81 40.3184 1169.98 42.9881 1169.98 46.4566C1169.98 49.9251 1170.81 52.5948 1172.48 54.4657C1174.15 56.3366 1176.54 57.2825 1179.63 57.2825C1182.73 57.2825 1185.08 56.3366 1186.75 54.4657Z" fill="#6041DB" style="fill:#6041DB;fill:color(display-p3 0.3765 0.2549 0.8588);fill-opacity:1;"/>
</svg>
