<svg width="1158" height="1091" viewBox="0 0 1158 1091" fill="none" xmlns="http://www.w3.org/2000/svg">
<path d="M1112.42 527.383C1112.42 805.37 887.062 1030.72 609.077 1030.72C331.09 1030.72 105.737 805.37 105.737 527.383C105.737 249.397 331.09 24.0432 609.077 24.0432C887.062 24.0432 1112.42 249.397 1112.42 527.383Z" fill="#267BDD" style="fill:#267BDD;fill:color(display-p3 0.1481 0.4834 0.8667);fill-opacity:1;"/>
<path d="M171.254 420.347L168.626 419.893C168.759 419.121 182.606 341.954 236.11 282.791L238.087 284.579C185.095 343.177 171.386 419.582 171.254 420.347Z" fill="white" style="fill:white;fill-opacity:1;"/>
<path d="M244.196 233.876L241.992 232.376C242.416 231.752 285.25 169.631 353.946 139.325L355.024 141.765C287.045 171.755 244.616 233.259 244.196 233.876Z" fill="white" style="fill:white;fill-opacity:1;"/>
<path d="M1083.02 518.249H1080.35C1080.35 422.561 1036.92 335.821 1036.49 334.956L1038.86 333.749C1039.3 334.62 1083.02 421.906 1083.02 518.249Z" fill="white" style="fill:white;fill-opacity:1;"/>
<path d="M1031.1 468.364C1029.04 430.242 1016.63 398.162 1016.51 397.842L1018.99 396.87C1019.12 397.194 1031.68 429.653 1033.76 468.22L1031.1 468.364Z" fill="white" style="fill:white;fill-opacity:1;"/>
<path d="M87.608 402.211L85 401.657C85.1627 400.89 101.997 324.118 161.017 246.545L163.139 248.159C104.476 325.263 87.7707 401.451 87.608 402.211Z" fill="black" style="fill:black;fill-opacity:1;"/>
<path d="M170.963 187.691L168.917 185.98C169.073 185.794 184.721 167.155 204.659 148.332L206.489 150.272C186.664 168.988 171.117 187.506 170.963 187.691Z" fill="black" style="fill:black;fill-opacity:1;"/>
<path d="M236.908 150.17L234.884 148.434C235.11 148.17 257.968 121.766 301.574 92.0091C341.794 64.5611 408.436 28.5277 497.518 12.7304L497.983 15.3571C409.368 31.0704 343.08 66.9117 303.076 94.2117C259.759 123.773 237.132 149.91 236.908 150.17Z" fill="black" style="fill:black;fill-opacity:1;"/>
<path d="M1111.12 355.837C1088.68 264.376 1017.48 185.412 1016.77 184.624L1018.74 182.829C1019.46 183.621 1091.11 263.089 1113.71 355.201L1111.12 355.837Z" fill="black" style="fill:black;fill-opacity:1;"/>
<path d="M1130.9 488.993C1128.24 455.726 1121.9 426.605 1117.04 408.033L1119.62 407.358C1124.51 426.034 1130.88 455.321 1133.55 488.781L1130.9 488.993Z" fill="black" style="fill:black;fill-opacity:1;"/>
<path d="M1145.36 614.726L1142.76 614.128C1145.05 604.206 1147.06 593.448 1148.72 582.149L1151.35 582.537C1149.68 593.906 1147.67 604.737 1145.36 614.726Z" fill="black" style="fill:black;fill-opacity:1;"/>
<path d="M1156.29 532.642L1153.63 532.498C1155.72 494.094 1153.86 457.071 1149 440.37L1151.56 439.626C1156.5 456.587 1158.4 493.967 1156.29 532.642Z" fill="black" style="fill:black;fill-opacity:1;"/>
<path d="M1114.32 654.114L1111.79 653.297C1116.47 638.732 1120.44 618.476 1123.59 593.09L1126.24 593.42C1123.07 618.969 1119.06 639.389 1114.32 654.114Z" fill="black" style="fill:black;fill-opacity:1;"/>
<path d="M1128.64 571.163L1125.99 570.917C1126.96 560.363 1127.38 553.34 1127.39 553.269L1130.05 553.428C1130.04 553.497 1129.62 560.567 1128.64 571.163Z" fill="black" style="fill:black;fill-opacity:1;"/>
<path d="M858.651 68.6716C788.77 24.189 671.727 8.9103 670.552 8.76096L670.888 6.11563C671.183 6.15296 700.826 9.96896 738.754 19.261C773.79 27.845 823.279 42.9943 860.083 66.4223L858.651 68.6716Z" fill="black" style="fill:black;fill-opacity:1;"/>
<path d="M800.348 20.7947C781.597 12.5227 738.042 2.70001 737.605 2.60134L738.189 1.08244e-05C738.629 0.0986775 782.437 9.97868 801.424 18.3547L800.348 20.7947Z" fill="black" style="fill:black;fill-opacity:1;"/>
<path d="M233.066 912.157C227.418 907.689 221.832 903.013 216.462 898.257L218.232 896.26C223.564 900.984 229.112 905.629 234.721 910.067L233.066 912.157Z" fill="black" style="fill:black;fill-opacity:1;"/>
<path d="M188.014 870.297C111.597 786.962 96.958 696.03 96.8193 695.121L99.454 694.717C99.5927 695.618 114.137 785.785 189.979 868.494L188.014 870.297Z" fill="black" style="fill:black;fill-opacity:1;"/>
<path d="M208.971 863.402C181.617 840.835 156.037 789.365 155.781 788.847L158.173 787.667C158.426 788.179 183.757 839.143 210.667 861.345L208.971 863.402Z" fill="black" style="fill:black;fill-opacity:1;"/>
<path d="M473.98 1034.59C435.088 1027.15 396.658 1013.92 359.76 995.28L360.964 992.9C397.64 1011.43 435.832 1024.58 474.481 1031.97L473.98 1034.59Z" fill="black" style="fill:black;fill-opacity:1;"/>
<path d="M312.646 967.799C293.528 955.001 282.818 945.505 282.712 945.41L284.487 943.421C284.591 943.513 295.179 952.898 314.128 965.583L312.646 967.799Z" fill="black" style="fill:black;fill-opacity:1;"/>
<path d="M633.215 1062.61L633.087 1059.95C642.959 1059.47 652.611 1058.73 661.774 1057.73L662.063 1060.38C652.846 1061.38 643.139 1062.13 633.215 1062.61Z" fill="black" style="fill:black;fill-opacity:1;"/>
<path d="M598.164 1063.23C537.126 1062.57 485.97 1053.41 485.461 1053.32L485.937 1050.7C486.444 1050.79 537.392 1059.9 598.192 1060.56L598.164 1063.23Z" fill="black" style="fill:black;fill-opacity:1;"/>
<path d="M306.43 888.288C222.324 829.317 191.332 735.768 191.028 734.83L193.567 734.01C193.867 734.94 224.608 827.662 307.96 886.105L306.43 888.288Z" fill="white" style="fill:white;fill-opacity:1;"/>
<path d="M490.33 990.334C424.321 978.736 358.226 934.545 357.566 934.1L359.057 931.889C359.713 932.33 425.352 976.208 490.792 987.706L490.33 990.334Z" fill="white" style="fill:white;fill-opacity:1;"/>
<path d="M381.72 910.181C364.152 904.671 342.937 885.011 342.042 884.177L343.861 882.226C344.077 882.427 365.53 902.31 382.518 907.637L381.72 910.181Z" fill="white" style="fill:white;fill-opacity:1;"/>
<path d="M634.038 61.3085C620.642 69.4698 562.358 103.58 520.287 135.652C513.591 140.756 508.604 147.76 505.983 155.762C500.531 172.414 495.639 190.907 494.246 196.275C493.922 197.519 494.088 198.83 494.723 199.948C498.658 206.882 520.212 230.747 637.678 272.292L665.248 212.658C665.248 212.658 647.836 101.679 642.495 64.6178C641.955 60.8791 637.678 59.0898 634.038 61.3085Z" fill="white" style="fill:white;fill-opacity:1;"/>
<path d="M899.352 728.296L754.757 745.284C731.3 748.04 710.798 762.404 700.2 783.51L635.484 913.552C632.724 919.045 626.59 921.965 620.588 920.641L597.584 915.568C581.454 912.012 565.333 921.582 560.733 937.444L557.128 949.88C555.129 956.768 558.277 964.108 564.646 967.409L670.824 1022.43C677.858 1026.08 686.514 1023.63 690.606 1016.85L797.312 843.081L944.798 833.793L899.352 728.296Z" fill="#274D76" style="fill:#274D76;fill:color(display-p3 0.1529 0.3020 0.4627);fill-opacity:1;"/>
<path d="M817.508 617.255L828.058 590.799L915.297 595.474L883.593 715.259L817.508 617.255Z" fill="#274D76" style="fill:#274D76;fill:color(display-p3 0.1529 0.3020 0.4627);fill-opacity:1;"/>
<path d="M806.492 553.315C806.492 553.315 816.077 528.502 815.935 515.027C815.744 497.089 817.689 460.606 806.269 462.315C799.305 463.359 797.227 480.237 796.381 487.483C796.048 490.347 794.936 493.101 793.023 495.259C790.293 498.345 786.415 499.527 784.373 485.561C781.049 462.81 781.777 419.038 768.565 427.055C761.864 431.119 765.461 470.873 761.679 469.107C757.895 467.342 758.355 407.318 742.249 413.874C736.928 416.039 738.125 444.715 739.228 460.759C739.289 461.657 737.987 461.838 737.791 460.959C735.613 451.263 732.285 437.141 729.62 428.859C726.747 419.939 720.084 424.609 720.084 431.119C720.084 445.115 722.452 474.602 722.452 474.602L806.492 553.315Z" fill="#274D76" style="fill:#274D76;fill:color(display-p3 0.1529 0.3020 0.4627);fill-opacity:1;"/>
<path d="M1030.42 632.957L1054.42 674.291L998.423 854.29C993.174 872.544 972.285 883.933 953.549 880.812L881.467 872.816C872.215 871.273 868.894 876.012 872.134 884.816L903.246 1027.55C908.53 1041.9 900.339 1057.7 885.558 1061.65L778.305 1090.31C767.923 1093.09 757.549 1085.83 756.593 1075.13L750.423 1038.29C750.173 1035.48 749.365 1024.19 755.757 1019.62C765.09 1012.96 779.757 1003.62 779.757 1003.62C784.702 1000.97 785.21 993.041 783.757 987.624L743.002 829.172C736.35 804.38 751.771 785.177 777.09 780.957C809.09 775.624 862.423 763.624 862.423 763.624L885.262 614.623C888.266 602.791 899.182 594.708 911.377 595.288L946.423 596.957L1030.42 632.957Z" fill="#BFDBFE" style="fill:#BFDBFE;fill:color(display-p3 0.7490 0.8588 0.9961);fill-opacity:1;"/>
<path d="M1018.16 580.482C1018.16 612.182 992.459 637.882 960.757 637.882C929.057 637.882 903.357 612.182 903.357 580.482C903.357 548.782 929.057 523.083 960.757 523.083C992.459 523.083 1018.16 548.782 1018.16 580.482Z" fill="#BFDBFE" style="fill:#BFDBFE;fill:color(display-p3 0.7490 0.8588 0.9961);fill-opacity:1;"/>
<path d="M439.527 579.811L630.274 407.254C640.131 398.335 654.538 399.043 666.21 405.407C689.797 418.267 730.251 441.271 766.329 480.367C796.623 513.199 846.953 565.314 852.901 609.439C853.582 614.491 851.825 619.561 848.283 623.227C790.117 683.486 671.819 794.457 658.595 805.738C627.291 832.446 546.095 772.158 499.854 718.395C480.539 695.941 415.357 602.617 439.527 579.811Z" fill="white" style="fill:white;fill-opacity:1;"/>
<path d="M1060.96 643.516C1043.24 626.089 1012.98 627.133 994.312 643.133L928.135 703.394C924.505 706.404 919.135 705.94 916.075 702.356L869.189 647.56C861.649 638.721 857.084 627.733 856.145 616.154L854.451 595.262C854.336 593.848 853.993 592.462 853.433 591.157L844.881 569.156C843.707 566.13 839.624 565.761 837.856 568.482C835.451 572.181 834.145 577.741 834.145 583.261C834.145 593.928 836.649 605.442 832.649 605.442C827.316 605.442 820.98 594.969 818.277 585.126C815.173 573.813 813.631 564.782 808.14 559.768C805.663 557.505 801.247 558.988 800.56 562.765C798.98 571.462 800.797 587.832 800.944 597.126C800.987 599.793 798.595 599.738 797.867 596.494C795.611 586.46 789.461 555.769 789.461 555.769C788.493 551.724 782.915 551.265 781.307 555.102C776.687 566.133 778.411 590.122 779.255 599.036C779.329 599.821 778.275 600.14 777.903 599.442C775.677 595.281 771.74 587.096 768.925 576.676C768.297 574.357 765.121 573.845 763.953 575.945C760.417 582.301 762.224 597.496 763.163 603.725C763.252 604.308 762.461 604.58 762.168 604.069C760.629 601.38 759.457 598.826 758.277 595.793C756.752 591.864 753.453 594.114 753.177 596.61C752.247 605.03 751.763 617.052 755.333 632.469C756.62 638.028 761.309 654.706 782.277 679.793L894.277 803.793C914.277 829.126 939.899 822.445 954.277 811.793C990.277 785.126 1056.73 719.43 1056.73 719.43C1082.07 698.097 1076.77 659.074 1060.96 643.516Z" fill="#BFDBFE" style="fill:#BFDBFE;fill:color(display-p3 0.7490 0.8588 0.9961);fill-opacity:1;"/>
<path d="M560.114 682.709C493.184 611.166 458.283 590.539 441.252 588.63C437.475 588.207 434.216 591.145 434.239 594.947C434.442 629.806 483.528 699.414 499.855 718.397C537.114 761.717 597.071 809.273 635.331 812.139C638.258 812.358 640.642 809.809 640.308 806.894C637.97 786.457 621.816 748.666 560.114 682.709Z" fill="#93B4F6" style="fill:#93B4F6;fill:color(display-p3 0.5765 0.7059 0.9647);fill-opacity:1;"/>
<path d="M495.312 200.903C500.604 213.645 561.435 252.868 637.678 272.292L639.94 267.401C610.356 241.467 559.2 215.435 521.235 205.644C507.3 202.051 499.723 200.384 495.312 200.903Z" fill="#93B4F6" style="fill:#93B4F6;fill:color(display-p3 0.5765 0.7059 0.9647);fill-opacity:1;"/>
<path d="M641.307 87.0022C634.317 81.1809 626.018 77.3155 616.646 75.5115L617.149 72.8929C626.97 74.7822 635.671 78.8395 643.013 84.9529L641.307 87.0022Z" fill="black" style="fill:black;fill-opacity:1;"/>
<path d="M699.288 570.617C694.706 567.364 689 567.081 684.668 570.657L596.056 643.837C590.722 648.244 590.388 658.945 594.908 664.183C598.421 668.253 605.485 676.361 608.904 680.511C615.238 688.201 625.642 688.451 630.75 683.796L654.676 661.997C656.849 660.017 660.21 660.156 662.213 662.309L667.273 667.748C670.854 671.501 676.785 671.689 680.596 668.169L707.013 643.767C712.017 639.145 712.049 631.247 707.082 626.583L704.642 624.292C702.364 622.151 702.39 618.524 704.701 616.419L716.865 605.336C721.404 601.2 723.009 591.936 717.296 586.541C717.296 586.541 705.225 574.835 699.288 570.617ZM743.256 529.265L715.032 505.624C710.605 501.917 704.854 500.201 699.122 500.891C676.26 503.636 616.468 511.672 596.425 522.689C589.002 526.769 572.912 544.577 572.912 544.577C567.086 550.62 567.06 560.181 572.854 566.256L609.545 606.801C612.09 609.612 616.39 609.932 619.322 607.532L648.656 583.508C651.834 580.904 652.15 576.153 649.346 573.151L643.436 566.827C641.073 564.608 642.173 560.647 645.342 559.968L740.724 539.481C745.492 538.459 746.993 532.397 743.256 529.265Z" fill="#4F46E5" style="fill:#4F46E5;fill:color(display-p3 0.3098 0.2745 0.8980);fill-opacity:1;"/>
<path d="M506.118 208.046C522.928 221.29 566.88 245.362 621.159 262.979L622.946 259.231C600.523 240.172 549.436 216.508 507.219 205.816C505.89 205.479 505.04 207.198 506.118 208.046Z" fill="black" style="fill:black;fill-opacity:1;"/>
<path d="M445.643 602.477C453.271 592.825 520.655 655.694 543.494 678.978C582.583 718.83 639.359 795.963 625.677 799.559C617.155 801.801 564.453 772.282 508.815 709.387C466.479 661.531 440.935 608.434 445.643 602.477Z" fill="black" style="fill:black;fill-opacity:1;"/>
<path d="M895.871 46.2074L893.895 34.2354C892.25 24.2687 882.399 19.3967 872.882 22.7767C860.402 27.2074 844.219 32.4527 835.443 39.2821C831.963 41.9874 830.068 46.2514 830.43 50.6434C833.638 89.6194 837.328 119.991 839.066 133.399C839.682 138.163 838.102 142.941 834.772 146.403L795.842 186.903L835.319 207.087L909.228 138.223L895.871 46.2074Z" fill="#274D76" style="fill:#274D76;fill:color(display-p3 0.1529 0.3020 0.4627);fill-opacity:1;"/>
<path d="M637.679 272.292L665.919 211.21C670.805 200.639 681.127 193.63 692.755 192.986L751.271 189.742C765.672 188.943 779.685 184.783 792.191 177.596C802.428 171.711 815.035 171.774 825.213 177.758C831.909 181.695 840.364 180.963 846.284 175.935L867.413 157.988C869.841 155.926 871.151 152.846 870.941 149.666C869.82 132.675 866.257 77.0457 865.815 49.927C865.753 46.1484 867.865 42.6724 871.261 41.0137C885.331 34.143 907.355 30.7977 924.24 33.6777C928.413 34.3897 931.681 37.8164 931.94 42.0417C933.075 60.5444 920.435 80.379 920.435 80.379L931.565 164.07C934.02 182.524 926.143 200.835 911.055 211.742L840.751 262.568C835.413 266.426 829.868 269.988 824.14 273.239C810.529 280.964 795.969 286.882 780.828 290.842L726.949 304.932L637.679 272.292Z" fill="#BFDBFE" style="fill:#BFDBFE;fill:color(display-p3 0.7490 0.8588 0.9961);fill-opacity:1;"/>
<path d="M661.905 217.415L694.637 212.447L720.085 239.485L670.78 286.405L644.689 256.927L661.905 217.415Z" fill="#274D76" style="fill:#274D76;fill:color(display-p3 0.1529 0.3020 0.4627);fill-opacity:1;"/>
<path d="M740.543 206.488C731.714 230.229 705.308 242.317 681.568 233.486C657.827 224.656 645.739 198.253 654.571 174.512C663.4 150.77 689.803 138.683 713.544 147.513C737.286 156.344 749.374 182.746 740.543 206.488Z" fill="#BFDBFE" style="fill:#BFDBFE;fill:color(display-p3 0.7490 0.8588 0.9961);fill-opacity:1;"/>
<path d="M626.003 167.773L624.035 166.55C622.279 165.46 621.607 163.234 622.467 161.353L625.083 155.625C626.617 152.264 625.311 148.286 622.083 146.489L613.325 141.614C609.891 139.702 605.556 140.952 603.665 144.398L577.199 192.632C575.435 195.846 576.416 199.877 579.459 201.922L588.832 208.222C592.289 210.548 596.995 209.402 598.999 205.75L606.585 191.926C607.713 189.87 610.331 189.174 612.331 190.397L613.372 191.034C615.653 192.428 618.639 191.58 619.845 189.196L627.672 173.728C628.744 171.61 628.02 169.025 626.003 167.773ZM580.18 173.694L588.859 160.294C590.325 158.028 589.425 154.988 586.963 153.884L583.341 152.262C581.149 151.281 580.871 148.284 582.844 146.916L621.607 120.044C623.571 118.682 623.135 115.664 620.864 114.914L603.115 109.056C601.013 108.361 598.709 108.67 596.864 109.892L558.705 135.161C556.364 136.712 554.461 138.84 553.18 141.34L547.825 151.792C545.12 157.069 547.44 163.534 552.883 165.889L574.737 175.342C576.709 176.196 579.011 175.5 580.18 173.694Z" fill="#4F46E5" style="fill:#4F46E5;fill:color(display-p3 0.3098 0.2745 0.8980);fill-opacity:1;"/>
<path d="M776.013 213.506C763.189 202.059 743.629 202.729 731.62 215.029L695.919 251.59C693.133 254.443 689.029 255.581 685.171 254.567L632.093 240.634C628.429 239.673 625.109 237.701 622.511 234.946L607.267 218.782C606 217.438 603.721 217.679 602.901 219.333C602.064 221.023 601.54 223.797 602.407 228.298C604.331 238.301 598.525 238.267 592.639 233.557C589.604 231.127 584.897 227.338 581.048 224.235C578.127 221.882 573.824 223.977 573.805 227.729C573.781 232.286 574.427 237.513 577.059 240.441C571.696 256.518 580.701 275.619 594.951 283.325C611.399 292.218 700.08 319.611 700.08 319.611C708.696 322.157 718.012 319.777 724.352 313.411L777.384 260.155C790.392 247.09 789.767 225.783 776.013 213.506Z" fill="#BFDBFE" style="fill:#BFDBFE;fill:color(display-p3 0.7490 0.8588 0.9961);fill-opacity:1;"/>
<path d="M669.882 160.126C664.202 164.253 659.775 170.18 657.146 177.248C651.222 193.177 656.81 210.308 669.294 220.521C676.018 226.024 686.267 227.337 696.448 221.044C703.076 216.948 708.09 210.369 710.996 202.554C716.087 188.866 712.648 174.66 703.556 164.492C696.095 156.149 679.351 153.246 669.882 160.126Z" fill="black" style="fill:black;fill-opacity:1;"/>
<path d="M337.838 676.592C332.746 657.176 327.073 632.171 324.088 623.668C323.969 623.33 323.548 622.408 323.249 622.21C320.57 620.428 304.833 612.888 286.616 615.935C280.974 616.879 261.621 615.078 253.866 620.964C251.473 622.783 250.554 625.844 250.352 628.844C249.264 645.014 246.57 694.995 247.021 711.851C247.102 714.875 249.185 717.599 252.149 718.202C284.962 724.876 323.118 721.807 340.128 708.962C342.01 707.54 343.056 705.278 342.842 702.927C342.432 698.403 341.248 689.594 337.838 676.592Z" fill="white" style="fill:white;fill-opacity:1;"/>
<path d="M150.346 547.074L96.1265 530.132C93.3105 529.248 91.5478 526.452 91.9651 523.529L100.333 464.952C100.925 460.817 98.0545 456.985 93.9211 456.388L60.0598 451.21C58.4758 450.982 55.0571 452.166 55.0571 456.728C55.0571 458.953 55.6731 460.2 56.7998 461.557L62.9238 468.933C64.0665 470.309 64.5585 472.113 64.2731 473.88L57.0398 518.685L81.8238 571.474L142.048 577.918L150.346 547.074Z" fill="#274D76" style="fill:#274D76;fill:color(display-p3 0.1529 0.3020 0.4627);fill-opacity:1;"/>
<path d="M43.2383 471.503L90.3543 545.629C91.6263 547.631 93.6423 549.043 95.957 549.557L106.52 551.9C110.022 552.677 113.689 552.064 116.748 550.192L120.825 547.695C128.918 542.739 138.777 541.579 147.801 544.521L212.441 565.599L193.541 624.517L129.805 608.975C124.276 607.628 118.834 605.972 113.49 604.013C105.541 601.1 93.9117 596.668 86.8357 593.191C68.589 584.221 62.5983 577.231 59.621 571.653C50.1637 553.933 26.8103 513.779 23.861 509.025C20.0383 502.864 11.625 502.335 7.15968 501.172C4.39302 500.451 2.37835 499.243 1.25302 496.615L0.682351 495.285C0.00368429 493.701 0.530351 491.86 1.94235 490.873L32.9077 469.251C36.3503 466.848 41.109 467.885 43.2383 471.503Z" fill="#BFDBFE" style="fill:#BFDBFE;fill:color(display-p3 0.7490 0.8588 0.9961);fill-opacity:1;"/>
<path d="M241.272 605.941L298.315 605.895C302.967 605.863 307.768 607.248 310.224 610.071C311.69 611.753 314.308 615.377 315.694 617.128C316.659 618.349 316.304 619.943 314.915 619.612L307.998 617.136L309.224 621.372C310.062 623.672 307.97 624.704 306.195 623.819L299.299 620.56C299.471 622.485 297.443 623.839 295.727 622.949C292.55 621.303 291.34 620.227 286.956 617.248C285.87 616.511 284.563 616.14 283.251 616.205C271.495 616.795 263.195 618.255 256.022 621.192C250.704 623.367 250.566 628.903 250.471 630.633C250.31 633.557 246.37 642.296 246.37 642.296L209.235 634.659L202.666 609.939L241.272 605.941Z" fill="#274D76" style="fill:#274D76;fill:color(display-p3 0.1529 0.3020 0.4627);fill-opacity:1;"/>
<path d="M248.869 582.021C248.869 598.87 235.759 612.529 219.59 612.529C203.419 612.529 190.31 598.87 190.31 582.021C190.31 565.171 203.419 551.513 219.59 551.513C235.759 551.513 248.869 565.171 248.869 582.021Z" fill="#BFDBFE" style="fill:#BFDBFE;fill:color(display-p3 0.7490 0.8588 0.9961);fill-opacity:1;"/>
<path d="M232.325 654.06C232.325 654.06 214.31 685.872 211.602 704.669C210.73 710.728 215.145 716.288 221.224 717.001C226.608 717.633 234.948 717.931 247.493 716.936C245.677 711.273 249.813 660.896 251.581 640.537C251.818 637.803 248.446 636.331 246.6 638.363L232.325 654.06Z" fill="white" style="fill:white;fill-opacity:1;"/>
<path d="M293.81 638.897C297.67 646.925 312.204 677.544 315.317 689.839C315.701 691.353 314.498 692.804 312.94 692.701C298.708 691.759 284.978 693.833 279.13 694.901C277.64 695.173 276.304 693.953 276.425 692.441L280.405 643.391C280.476 642.523 281.028 641.768 281.834 641.439L290.861 637.761C291.99 637.303 293.282 637.799 293.81 638.897Z" fill="white" style="fill:white;fill-opacity:1;"/>
<path d="M311.97 679.93C305.388 662.701 292.867 636.945 292.867 636.945L289.924 638.143L303.902 692.458C307.784 692.419 311.835 692.658 315.887 693.049C315.698 690.469 314.164 685.674 311.97 679.93Z" fill="#93B4F6" style="fill:#93B4F6;fill:color(display-p3 0.5765 0.7059 0.9647);fill-opacity:1;"/>
<path d="M315.887 693.048C315.87 692.825 305.134 684.095 305.134 684.095C303.299 682.7 300.819 682.512 298.794 683.611L277.79 695.12C282.873 694.164 299.374 691.456 315.887 693.048Z" fill="#274D76" style="fill:#274D76;fill:color(display-p3 0.1529 0.3020 0.4627);fill-opacity:1;"/>
<path d="M209.655 590.988C209.166 596.308 210.343 601.312 212.707 605.506C214.294 608.322 217.285 610.131 220.517 610.138H220.567C235.155 610.138 246.982 597.816 246.982 582.616V582.518C246.961 576.108 242.37 570.654 236.295 569.635C234.438 569.324 232.505 569.244 230.526 569.426C219.579 570.427 210.706 579.59 209.655 590.988Z" fill="black" style="fill:black;fill-opacity:1;"/>
<path d="M304.117 642.781L297.823 643.519C297.317 643.579 297.059 642.932 297.464 642.627L302.751 638.633C304.812 637.076 303.573 633.793 301 633.993C295.276 634.439 287.912 635.047 282.633 635.611C281.761 635.703 281.379 634.532 282.14 634.096C284.493 632.748 285.74 632.103 288.2 630.72C291.701 628.753 288.249 625.968 284.243 626.123C276.741 626.413 269.256 630.936 263.568 630.936C253.28 630.936 224.779 629.557 224.779 629.557C222.521 629.48 220.436 628.328 219.172 626.457L196.025 592.209C189.548 583.655 177.319 582.069 168.873 588.687C160.855 594.969 159.137 606.42 164.96 614.779L198.853 658.201C201.989 662.219 206.744 664.641 211.839 664.812L285.633 663.689C294.429 663.701 300.62 655.725 301.4 651.588C303.661 650.055 305.285 648.371 306.435 646.86C307.796 645.067 306.355 642.52 304.117 642.781Z" fill="#BFDBFE" style="fill:#BFDBFE;fill:color(display-p3 0.7490 0.8588 0.9961);fill-opacity:1;"/>
<path d="M213.309 327.266C213.309 327.266 219.579 350.812 235.378 382.728C257.774 427.966 268.713 446.093 280.229 465.517C294.254 489.17 337.087 513.152 419.703 461.974C505.313 408.944 492.261 374.014 486.587 361.857C483.226 354.653 455.963 303.701 433.334 265.017C424.503 249.922 416.174 237.037 410.625 228.717C406.011 221.802 398.594 217.3 390.335 216.368C367.809 213.822 320.067 214.077 270.987 249.638C203.315 298.67 213.309 327.266 213.309 327.266Z" fill="white" style="fill:white;fill-opacity:1;"/>
<path d="M490.023 387.752C492.273 376.372 487.364 364.75 477.813 358.164C453.568 341.446 406.092 340.719 345.899 378.746C279.747 420.536 278.213 455.895 288.063 475.476C307.341 494.496 348.919 505.823 419.704 461.975C470.424 430.556 486.513 405.492 490.023 387.752Z" fill="#93B4F6" style="fill:#93B4F6;fill:color(display-p3 0.5765 0.7059 0.9647);fill-opacity:1;"/>
<path d="M300.437 474.189C292.211 462.42 292.045 425.533 353.798 385.809C416.034 345.774 470.637 357.16 478.662 378.745C486.687 400.332 441.963 439.869 392.158 465.178C347.094 488.08 309.562 487.245 300.437 474.189Z" fill="black" style="fill:black;fill-opacity:1;"/>
<path d="M246.979 708.375C241.558 708.367 235.827 708.657 230.113 709.111C217.238 710.133 215.502 714.185 216.711 715.425C217.839 716.581 219.571 717.207 221.226 717.402C226.61 718.034 237.73 718.39 249.569 716.999C246.979 714.127 246.982 712.753 246.979 708.375Z" fill="black" style="fill:black;fill-opacity:1;"/>
<path d="M337.551 628.983C333.695 624.219 331.503 624.806 324.452 624.704C327.444 635.023 332.64 656.778 337.839 676.592C343.036 696.408 343.06 706.49 343.06 706.49C349.588 705.62 354.859 704.651 367.647 702.498C378.091 700.739 379.025 692.096 373.617 684.098L337.551 628.983Z" fill="white" style="fill:white;fill-opacity:1;"/>
<path d="M337.954 710.491C338.696 708.598 337.469 706.71 334.346 705.162C328.121 702.075 315.93 699.642 292.181 700.968C270.281 702.192 259.182 707.611 253.594 712.382C250.605 714.935 250.802 716.92 253.453 718.515C286.361 726.51 320.4 722.054 337.954 710.491Z" fill="#93B4F6" style="fill:#93B4F6;fill:color(display-p3 0.5765 0.7059 0.9647);fill-opacity:1;"/>
<path d="M369.011 702.744C371.647 702.07 372.069 699.232 370.697 698.254C370.113 697.838 369.413 697.417 368.585 696.992C362.09 693.652 351.723 693.693 341.794 694.886C343.049 702.59 343.278 704.452 341.865 707.056C349.941 706.49 368.226 702.945 369.011 702.744Z" fill="black" style="fill:black;fill-opacity:1;"/>
<path d="M356.203 284.63C339.206 257.705 312.193 253.6 294.503 260.322C291.405 261.5 290.005 265.084 291.667 267.953L301.319 281.034C302.461 283.002 304.729 283.973 306.962 283.54C316.407 281.71 327.997 285.361 335.639 296.913C341.703 306.08 341.697 320.449 332.067 329.669C329.958 331.689 330.171 335.178 331.637 337.706L337.798 348.336C340.233 352.536 345.69 352.941 349.414 349.828C366.842 335.264 368.123 303.513 356.203 284.63ZM292.161 319.466C288.277 309.702 288.166 298.824 292.729 291.693C293.797 290.024 295.758 287.308 294.765 285.593L286.175 273.144C284.357 270.004 279.623 271.972 277.461 274.886C266.755 289.328 262.761 308.138 270.75 328.221C282.499 357.754 304.317 366.393 326.793 360.894C330.427 360.005 332.201 355.878 330.325 352.64L323.766 341.777C322.322 339.285 319.562 337.909 316.69 338.142C306.993 338.932 297.382 332.59 292.161 319.466Z" fill="#4F46E5" style="fill:#4F46E5;fill:color(display-p3 0.3098 0.2745 0.8980);fill-opacity:1;"/>
<path d="M732.066 236.963C731.278 236.963 730.498 237.302 729.96 237.952L712.641 258.831C711.816 259.826 711.778 261.25 712.554 262.215C718.021 269.028 730.542 276.716 735.673 279.707C736.908 280.427 738.506 280.063 739.306 278.878C742.38 274.316 748.444 265.435 754.524 257.204C755.37 256.058 755.198 254.476 754.124 253.524C748.934 248.928 739.093 241.511 733.688 237.499C733.201 237.138 732.632 236.963 732.066 236.963ZM737.037 282.742C736.112 282.742 735.178 282.506 734.329 282.011C727.798 278.204 716.014 270.788 710.474 263.884C708.91 261.935 708.958 259.094 710.589 257.13L727.908 236.248C729.74 234.042 732.98 233.651 735.276 235.358C740.716 239.396 750.628 246.866 755.892 251.528C758.008 253.403 758.341 256.523 756.669 258.788C750.62 266.979 744.58 275.824 741.517 280.368C740.482 281.902 738.777 282.742 737.037 282.742Z" fill="black" style="fill:black;fill-opacity:1;"/>
<path d="M955.198 705.839C952.21 708.539 951.849 713.111 954.375 716.247L983.114 751.909C984.407 753.515 986.25 754.508 988.302 754.705C990.361 754.911 992.353 754.283 993.929 752.955L1027.35 724.816C1030.55 722.121 1030.96 717.321 1028.28 714.116L997.874 677.884C996.534 676.288 994.653 675.331 992.573 675.187C990.497 675.049 988.498 675.733 986.953 677.132L955.198 705.839ZM989.055 757.409C988.721 757.409 988.383 757.393 988.046 757.361C985.274 757.092 982.785 755.752 981.038 753.583L952.299 717.921C948.886 713.685 949.374 707.508 953.409 703.86L985.165 675.152C987.253 673.264 989.955 672.327 992.757 672.527C995.565 672.72 998.107 674.015 999.917 676.171L1030.32 712.403C1033.95 716.732 1033.39 723.215 1029.07 726.856L995.647 754.993C993.777 756.569 991.466 757.409 989.055 757.409Z" fill="black" style="fill:black;fill-opacity:1;"/>
<path d="M832.091 694.865L830.006 693.203L844.977 674.415C845.861 673.306 845.546 672.143 844.957 671.425C844.367 670.706 843.287 670.169 842.029 670.817L825.115 679.523C822.907 680.659 820.397 680.114 818.854 678.177C817.314 676.238 817.354 673.666 818.955 671.777L834.003 654.009C834.938 652.905 834.635 651.722 834.041 650.982C833.447 650.243 832.355 649.69 831.075 650.369L787.457 672.571L786.246 670.194L829.847 648.001C832.037 646.846 834.563 647.373 836.119 649.311C837.679 651.253 837.646 653.834 836.037 655.733L820.99 673.501C820.061 674.598 820.355 675.779 820.943 676.517C821.53 677.257 822.613 677.814 823.895 677.153L840.807 668.447C842.978 667.329 845.474 667.847 847.018 669.733C848.565 671.619 848.582 674.17 847.063 676.077L832.091 694.865Z" fill="black" style="fill:black;fill-opacity:1;"/>
<path d="M887.727 775.906L885.227 774.98L904.659 722.493L907.159 723.421L887.727 775.906Z" fill="black" style="fill:black;fill-opacity:1;"/>
<path d="M955.117 798.57L932.669 734.79L935.185 733.905L957.633 797.685L955.117 798.57Z" fill="black" style="fill:black;fill-opacity:1;"/>
<path d="M936.253 809.736L931.621 778.38L934.259 777.989L938.891 809.345L936.253 809.736Z" fill="black" style="fill:black;fill-opacity:1;"/>
<path d="M902.03 791.611L899.41 791.111L904.194 765.987L906.814 766.487L902.03 791.611Z" fill="black" style="fill:black;fill-opacity:1;"/>
<path d="M712.716 308.197L688.519 263.615L690.862 262.343L715.06 306.925L712.716 308.197Z" fill="black" style="fill:black;fill-opacity:1;"/>
<path d="M695.88 312.811L688.408 286.822L690.971 286.085L698.443 312.074L695.88 312.811Z" fill="black" style="fill:black;fill-opacity:1;"/>
<path d="M679.305 305.897L676.644 305.739L678.945 266.687L681.608 266.845L679.305 305.897Z" fill="black" style="fill:black;fill-opacity:1;"/>
<path d="M608.482 281.759L605.906 281.069L612.754 255.439C613.183 253.831 614.63 252.831 616.296 253.005C617.954 253.18 619.168 254.465 619.251 256.129L620.011 271.473C620.032 271.9 620.338 272.029 620.516 272.067C620.699 272.108 621.027 272.113 621.223 271.731L631.11 252.216L633.487 253.423L623.6 272.936C622.912 274.292 621.448 274.993 619.962 274.676C618.474 274.359 617.423 273.124 617.347 271.604L616.587 256.261C616.564 255.785 616.219 255.677 616.015 255.656C615.812 255.636 615.454 255.667 615.33 256.127L608.482 281.759Z" fill="black" style="fill:black;fill-opacity:1;"/>
<path d="M921.176 156.357L882.152 150.138L882.572 147.505L921.595 153.724L921.176 156.357Z" fill="black" style="fill:black;fill-opacity:1;"/>
<path d="M920.9 176.316L884.265 162.01L885.237 159.526L921.87 173.832L920.9 176.316Z" fill="black" style="fill:black;fill-opacity:1;"/>
<path d="M909.651 201.702L883.74 171.593L885.762 169.853L911.672 199.962L909.651 201.702Z" fill="black" style="fill:black;fill-opacity:1;"/>
<path d="M846.095 884.677L845.945 884.668L769.705 875.947L770.007 873.299L846.166 882.011C848.009 881.979 849.01 880.721 849.334 879.543C849.662 878.351 849.435 876.733 847.815 875.768L760.086 834.357C757.354 832.736 756.327 829.675 757.477 826.851C758.626 824.027 761.499 822.549 764.462 823.261L834.051 838.736C836.047 839.216 837.37 838.039 837.902 836.887C838.426 835.757 838.475 834.031 836.926 832.832L778.63 804.015L779.813 801.624L838.415 830.616C841.166 832.631 841.354 835.78 840.323 838.008C839.291 840.236 836.779 842.132 833.451 841.335L763.862 825.861C761.763 825.352 760.449 826.624 759.947 827.856C759.445 829.089 759.509 830.916 761.338 832.005L849.067 873.417C851.574 874.904 852.645 877.563 851.903 880.252C851.165 882.94 848.885 884.677 846.095 884.677Z" fill="black" style="fill:black;fill-opacity:1;"/>
<path d="M191.807 607.104C191.197 607.104 190.581 607.279 190.038 607.642L180.715 613.891C179.271 614.858 178.87 616.83 179.821 618.287L186.814 628.987C187.315 629.754 188.123 630.27 189.03 630.4C189.945 630.53 190.858 630.264 191.555 629.671L200.345 622.184C201.59 621.123 201.833 619.304 200.911 617.955L194.45 608.492C193.835 607.591 192.829 607.104 191.807 607.104ZM189.486 633.099C189.207 633.099 188.929 633.079 188.65 633.039C186.985 632.799 185.502 631.854 184.582 630.446L177.589 619.744C175.842 617.072 176.579 613.452 179.231 611.675L188.554 605.426C191.215 603.644 194.846 604.344 196.653 606.99L203.113 616.451C204.806 618.928 204.359 622.266 202.074 624.212L193.285 631.7C192.218 632.61 190.869 633.099 189.486 633.099Z" fill="black" style="fill:black;fill-opacity:1;"/>
<path d="M202.105 651.247L200.176 649.406L214.777 634.103L216.706 635.943L202.105 651.247Z" fill="black" style="fill:black;fill-opacity:1;"/>
<path d="M208.793 657.236L206.404 656.053L210.297 648.192L212.686 649.375L208.793 657.236Z" fill="black" style="fill:black;fill-opacity:1;"/>
<path d="M218.169 660.288L215.56 659.741L221.008 633.767L223.617 634.315L218.169 660.288Z" fill="black" style="fill:black;fill-opacity:1;"/>
<path d="M251.333 654.788C251.272 654.788 251.211 654.787 251.148 654.784C249.373 654.708 247.867 653.571 247.311 651.884L244.941 644.707L247.473 643.871L249.843 651.048C250.157 652 251.008 652.109 251.261 652.12C251.511 652.121 252.372 652.093 252.765 651.171L255.069 645.769C255.627 644.467 256.789 643.533 258.183 643.272C259.577 643.016 261 643.463 261.989 644.477L268.96 651.629C269.569 652.256 270.327 652.185 270.831 651.909C271.333 651.633 271.8 651.035 271.601 650.181L268.356 636.309L270.952 635.703L274.197 649.575C274.636 651.445 273.797 653.323 272.112 654.247C270.424 655.172 268.391 654.867 267.051 653.491L260.08 646.339C259.708 645.957 259.193 645.797 258.673 645.893C258.151 645.991 257.731 646.327 257.523 646.816L255.219 652.217C254.545 653.795 253.033 654.788 251.333 654.788Z" fill="black" style="fill:black;fill-opacity:1;"/>
<path d="M61.1805 556.94L60.3152 554.416L79.4072 547.862L80.2739 550.386L61.1805 556.94Z" fill="black" style="fill:black;fill-opacity:1;"/>
<path d="M65.5905 566.961L63.8838 564.912L74.1425 556.364L75.8491 558.413L65.5905 566.961Z" fill="black" style="fill:black;fill-opacity:1;"/>
<path d="M76.239 578.401L73.7537 577.435L81.7323 556.905L84.2177 557.872L76.239 578.401Z" fill="black" style="fill:black;fill-opacity:1;"/>
<path d="M10.2532 497.076C9.95452 497.076 9.65585 497.044 9.35985 496.98L7.04785 496.476L7.61585 493.87L9.92785 494.374C10.3572 494.466 10.7892 494.38 11.1465 494.128C11.5039 493.877 11.7332 493.5 11.7905 493.066L12.0372 491.202C12.1945 490.016 12.8519 488.948 13.8412 488.273C14.8305 487.6 16.0639 487.378 17.2265 487.665L21.8105 488.8C22.3039 488.922 22.8052 488.801 23.1905 488.472C23.5745 488.141 23.7692 487.662 23.7225 487.158L23.4905 484.602C23.3665 483.24 23.8879 481.941 24.9199 481.042C25.9532 480.144 27.3079 479.806 28.6439 480.117L31.6465 480.818C32.1385 480.932 32.6385 480.808 33.0172 480.474C33.3972 480.142 33.5865 479.664 33.5385 479.161C33.3959 477.697 34.0092 476.292 35.1798 475.4C36.3532 474.508 37.8718 474.293 39.2438 474.821L42.6892 476.145L41.7318 478.634L38.2865 477.31C37.7772 477.114 37.2318 477.192 36.7945 477.522C36.3585 477.854 36.1398 478.357 36.1918 478.902C36.3252 480.27 35.8092 481.576 34.7745 482.481C33.7425 483.386 32.3812 483.729 31.0412 483.414L28.0385 482.714C27.5492 482.602 27.0519 482.724 26.6705 483.053C26.2919 483.384 26.1012 483.86 26.1465 484.36L26.3785 486.916C26.5025 488.27 25.9599 489.608 24.9279 490.494C23.8959 491.381 22.4919 491.714 21.1705 491.388L16.5865 490.253C16.1545 490.146 15.7132 490.228 15.3425 490.477C14.9745 490.728 14.7399 491.11 14.6812 491.552L14.4345 493.416C14.2812 494.58 13.6412 495.634 12.6799 496.31C11.9652 496.812 11.1145 497.076 10.2532 497.076Z" fill="black" style="fill:black;fill-opacity:1;"/>
<path d="M880.699 62.2773C880.666 62.2773 880.631 62.2773 880.598 62.276C879.239 62.2373 878.062 61.4387 877.525 60.192L875.366 55.1827C875.182 54.7573 874.807 54.708 874.643 54.708H874.633C874.475 54.7093 874.09 54.7613 873.914 55.2013L871.503 61.232L869.026 60.2427L871.438 54.212C871.958 52.912 873.198 52.0587 874.599 52.0413H874.645C876.026 52.0413 877.267 52.856 877.814 54.128L879.973 59.136C880.153 59.5507 880.522 59.6067 880.673 59.6107C880.815 59.6053 881.197 59.58 881.398 59.176L882.958 56.056C883.477 55.02 884.473 54.316 885.623 54.1747C886.786 54.0293 887.913 54.4733 888.669 55.3547L891.243 58.36C891.517 58.6787 891.867 58.6453 892.005 58.6173C892.141 58.588 892.473 58.4773 892.594 58.0747L894.158 52.8613C894.505 51.7093 895.403 50.8347 896.566 50.5213C897.726 50.2053 898.947 50.5107 899.826 51.3347L904.859 56.0507C905.159 56.332 905.497 56.272 905.626 56.2293C905.757 56.1893 906.07 56.0547 906.163 55.6547L907.146 51.3933C907.419 50.2093 908.271 49.2747 909.426 48.892C910.583 48.5107 911.825 48.7533 912.749 49.5413L916.358 52.616C916.674 52.884 917.01 52.8027 917.139 52.7547C917.27 52.7067 917.577 52.552 917.643 52.1427L918.327 47.9173C918.53 46.66 919.405 45.62 920.61 45.204C921.817 44.7867 923.145 45.0693 924.081 45.9347C924.423 46.252 924.787 46.14 924.93 46.0787C925.071 46.0173 925.401 45.8227 925.401 45.3587V42.312H928.067V45.3587C928.067 46.752 927.275 47.964 925.998 48.5227C924.721 49.0827 923.291 48.8387 922.269 47.892C921.957 47.6027 921.611 47.68 921.479 47.7253C921.345 47.772 921.027 47.924 920.959 48.3427L920.277 52.568C920.074 53.8147 919.246 54.8213 918.061 55.2573C916.871 55.696 915.591 55.4653 914.629 54.6453L911.019 51.572C910.717 51.312 910.39 51.3813 910.263 51.424C910.137 51.4653 909.835 51.604 909.745 51.9933L908.762 56.2533C908.481 57.472 907.599 58.416 906.403 58.78C905.209 59.1413 903.949 58.852 903.037 57.9973L898.003 53.2813C897.714 53.0093 897.387 53.0613 897.261 53.096C897.133 53.1307 896.826 53.2507 896.713 53.628L895.149 58.8413C894.785 60.0507 893.791 60.9653 892.557 61.2267C891.322 61.4893 890.042 61.0547 889.221 60.096L886.643 57.0893C886.395 56.8027 886.079 56.8053 885.95 56.8213C885.825 56.836 885.513 56.9093 885.343 57.2493L883.783 60.368C883.191 61.5533 882.015 62.2773 880.699 62.2773Z" fill="black" style="fill:black;fill-opacity:1;"/>
<path d="M888.174 51.6948L875.453 44.2762L876.797 41.9722L889.518 49.3908L888.174 51.6948Z" fill="black" style="fill:black;fill-opacity:1;"/>
<path d="M904.069 48.689L887.53 39.501L888.824 37.1703L905.364 46.3583L904.069 48.689Z" fill="black" style="fill:black;fill-opacity:1;"/>
<path d="M916.337 44.3281L902.729 37.8735L903.872 35.4641L917.48 41.9188L916.337 44.3281Z" fill="black" style="fill:black;fill-opacity:1;"/>
<path d="M766.25 1075.16L763.797 1074.12L767.881 1064.52C768.866 1062.21 770.821 1060.48 773.242 1059.79C775.666 1059.1 778.234 1059.54 780.293 1060.99L784.53 1063.99C786.006 1065.03 787.84 1065.3 789.557 1064.73C791.276 1064.15 792.577 1062.83 793.13 1061.11L793.862 1058.84C794.696 1056.24 796.75 1054.22 799.358 1053.44C801.962 1052.65 804.792 1053.19 806.924 1054.89L811.225 1058.31C812.704 1059.49 814.584 1059.85 816.384 1059.29C818.185 1058.74 819.541 1057.39 820.102 1055.58L821.213 1052.02C822.028 1049.4 823.993 1047.42 826.602 1046.59C829.212 1045.75 831.961 1046.22 834.145 1047.88L839.086 1051.63C840.582 1052.76 842.462 1053.08 844.246 1052.49C846.03 1051.9 847.356 1050.53 847.885 1048.73L849.737 1042.43C850.548 1039.67 852.685 1037.56 855.456 1036.78C858.221 1036 861.15 1036.7 863.278 1038.63L867.246 1042.25C868.729 1043.6 870.762 1044.06 872.682 1043.47C874.602 1042.88 876.03 1041.36 876.502 1039.41C877.208 1036.5 879.344 1034.25 882.218 1033.41C885.09 1032.56 888.105 1033.29 890.274 1035.35L896.464 1041.23L894.628 1043.16L888.438 1037.28C886.964 1035.88 884.922 1035.39 882.972 1035.97C881.022 1036.54 879.572 1038.06 879.094 1040.04C878.398 1042.92 876.293 1045.15 873.464 1046.02C870.633 1046.88 867.64 1046.21 865.449 1044.22L861.481 1040.61C860.04 1039.29 858.06 1038.82 856.174 1039.35C854.296 1039.88 852.845 1041.31 852.296 1043.18L850.444 1049.48C849.676 1052.1 847.67 1054.17 845.081 1055.02C842.488 1055.88 839.646 1055.4 837.474 1053.75L832.533 1050C831.052 1048.88 829.185 1048.56 827.414 1049.13C825.645 1049.69 824.312 1051.03 823.76 1052.81L822.649 1056.38C821.834 1058.99 819.784 1061.03 817.168 1061.84C814.549 1062.64 811.709 1062.11 809.564 1060.4L805.262 1056.97C803.794 1055.8 801.926 1055.44 800.129 1055.99C798.333 1056.53 796.976 1057.87 796.401 1059.65L795.669 1061.93C794.853 1064.47 792.934 1066.41 790.402 1067.25C787.874 1068.1 785.17 1067.7 782.993 1066.17L778.754 1063.17C777.358 1062.19 775.614 1061.9 773.972 1062.36C772.329 1062.83 771.002 1063.99 770.334 1065.57L766.25 1075.16Z" fill="black" style="fill:black;fill-opacity:1;"/>
<path d="M679.117 1009.1H676.45V996.315C676.45 994.559 675.548 992.978 674.036 992.083C672.524 991.19 670.701 991.162 669.168 992.008L663.53 995.108C661.158 996.414 658.349 996.37 656.018 994.991C653.688 993.614 652.296 991.175 652.296 988.466V984.062C652.296 982.388 651.497 980.898 650.104 979.97C648.712 979.04 647.029 978.88 645.485 979.526L638.244 982.554C635.9 983.535 633.234 983.28 631.118 981.87C629.001 980.46 627.738 978.102 627.738 975.559V974.1C627.738 972.435 626.945 970.948 625.564 970.019C624.18 969.09 622.501 968.918 620.962 969.551L614.034 972.386C611.693 973.343 609.04 973.072 606.937 971.663C604.837 970.252 603.582 967.9 603.582 965.368C603.582 963.691 602.78 962.199 601.382 961.272C599.985 960.346 598.296 960.188 596.756 960.842L591.369 963.118C589.296 963.994 586.96 963.903 584.96 962.88C582.958 961.854 581.525 960.008 581.026 957.815L580.333 954.771C580.006 953.336 579.066 952.134 577.754 951.471C576.437 950.811 574.914 950.768 573.564 951.36L563.985 955.567L562.913 953.124L572.492 948.918C574.573 948.007 576.929 948.07 578.953 949.091C580.978 950.112 582.429 951.966 582.933 954.179L583.626 957.223C583.95 958.646 584.878 959.843 586.177 960.507C587.472 961.174 588.986 961.227 590.332 960.662L595.716 958.386C598.065 957.392 600.73 957.642 602.857 959.05C604.98 960.459 606.249 962.82 606.249 965.368C606.249 967.034 607.041 968.52 608.424 969.45C609.806 970.376 611.482 970.548 613.025 969.916L619.952 967.082C622.293 966.124 624.948 966.394 627.049 967.806C629.15 969.216 630.405 971.57 630.405 974.1V975.559C630.405 977.232 631.202 978.723 632.596 979.65C633.989 980.576 635.673 980.739 637.214 980.092L644.457 977.066C646.805 976.086 649.468 976.343 651.584 977.75C653.7 979.159 654.962 981.518 654.962 984.062V988.466C654.962 990.222 655.865 991.802 657.374 992.696C658.888 993.588 660.71 993.618 662.245 992.772L667.882 989.672C670.254 988.366 673.064 988.41 675.394 989.79C677.725 991.167 679.117 993.607 679.117 996.315V1009.1Z" fill="black" style="fill:black;fill-opacity:1;"/>
<path d="M978.947 600.314C966.624 620.311 933.825 630.795 917.852 609.297C900.104 585.409 912.752 534.597 949.697 532.453C958.125 531.963 966.529 534.717 973.16 540.217C990.012 554.191 992.76 577.897 978.947 600.314Z" fill="black" style="fill:black;fill-opacity:1;"/>
<path d="M936.826 573.837C932.295 587.853 927.098 603.348 920.571 595.396C916.517 590.455 914.053 578.559 916.949 567.253C919.23 558.344 925.597 549.8 931.934 545.313C935.214 542.992 938.53 542.463 941.191 543.876C947.958 547.472 941.906 558.125 936.826 573.837Z" fill="#4F46E5" style="fill:#4F46E5;fill:color(display-p3 0.3098 0.2745 0.8980);fill-opacity:1;"/>
<path d="M680.774 184.62C673.938 191.943 666.235 199.952 663.079 191.602C661.118 186.414 662.042 177.288 666.968 171.031C670.851 166.099 677.804 163.299 683.772 163.208C686.86 163.163 689.55 164.336 691.272 166.512C695.648 172.047 688.436 176.411 680.774 184.62Z" fill="#4F46E5" style="fill:#4F46E5;fill:color(display-p3 0.3098 0.2745 0.8980);fill-opacity:1;"/>
<path d="M233.883 586.582C233.977 581.793 234.16 576.483 237.835 578.435C240.119 579.649 244.496 589.261 239.475 595.141C238.529 596.249 237.129 596.593 235.86 596.371C232.635 595.81 233.776 591.95 233.883 586.582Z" fill="#4F46E5" style="fill:#4F46E5;fill:color(display-p3 0.3098 0.2745 0.8980);fill-opacity:1;"/>
<path d="M329.816 710.978C330.388 709.731 329.363 708.529 326.803 707.585C321.7 705.701 311.763 704.361 292.503 705.695C274.742 706.926 265.816 710.67 261.356 713.883C258.97 715.602 259.16 716.89 261.338 717.873C288.183 722.418 315.748 718.845 329.816 710.978Z" fill="black" style="fill:black;fill-opacity:1;"/>
<path d="M796.565 596.787C794.333 586.852 788.215 556.339 788.153 556.032L790.768 555.508C790.829 555.815 796.941 586.297 799.167 596.204L796.565 596.787Z" fill="black" style="fill:black;fill-opacity:1;"/>
<path d="M823.581 600.029C820.837 596.045 818.437 590.741 816.993 585.479C816.487 583.635 816.022 581.853 815.575 580.138C813.326 571.505 811.55 564.686 807.241 560.753L809.041 558.783C813.931 563.25 815.795 570.406 818.157 579.466C818.601 581.17 819.061 582.942 819.563 584.774C820.933 589.759 823.197 594.769 825.775 598.515L823.581 600.029Z" fill="black" style="fill:black;fill-opacity:1;"/>
<path d="M836.241 600.638L833.574 600.562C833.636 598.472 833.446 595.737 833.248 592.841C833.044 589.872 832.812 586.504 832.812 583.261C832.812 577.333 834.278 571.537 836.737 567.756L838.974 569.209C836.785 572.576 835.478 577.829 835.478 583.261C835.478 586.413 835.697 589.588 835.908 592.658C836.112 595.62 836.305 598.418 836.241 600.638Z" fill="black" style="fill:black;fill-opacity:1;"/>
<path d="M922.629 706.69C919.808 706.69 917.012 705.508 915.06 703.221L892.864 677.278L894.889 675.545L917.088 701.489C919.658 704.502 924.236 704.9 927.282 702.369L993.416 642.148C997.046 639.034 1001.12 636.44 1005.56 634.413L1006.67 636.837C1002.46 638.762 998.593 641.22 995.18 644.145L929.032 704.381C927.16 705.934 924.886 706.69 922.629 706.69Z" fill="black" style="fill:black;fill-opacity:1;"/>
<path d="M927.022 822.684C915.619 822.684 903.61 817.766 893.231 804.62L867.682 776.336L869.661 774.549L895.269 802.9C914.021 826.646 938.342 821.941 953.485 810.721C965.591 801.754 982.445 787.405 1003.58 768.073L1005.38 770.042C984.178 789.434 967.253 803.842 955.073 812.865C947.378 818.565 937.453 822.684 927.022 822.684Z" fill="black" style="fill:black;fill-opacity:1;"/>
<path d="M761.011 604.732C759.525 602.136 758.299 599.528 757.036 596.276L759.523 595.311C760.752 598.476 761.888 600.897 763.325 603.407L761.011 604.732Z" fill="black" style="fill:black;fill-opacity:1;"/>
<path d="M776.727 600.072C774.567 596.032 770.512 587.664 767.637 577.024L770.212 576.328C773.017 586.712 776.972 594.874 779.079 598.814L776.727 600.072Z" fill="black" style="fill:black;fill-opacity:1;"/>
<path d="M960.758 639.215C939.203 639.215 919.414 627.438 909.115 608.479L911.458 607.206C921.29 625.304 940.181 636.548 960.758 636.548V639.215Z" fill="black" style="fill:black;fill-opacity:1;"/>
<path d="M599.288 237.957C597.166 237.957 594.568 236.809 591.806 234.598C588.77 232.169 584.061 228.377 580.21 225.274L581.885 223.198C585.733 226.299 590.437 230.089 593.473 232.515C596.313 234.79 599.073 235.803 600.34 235.038C601.482 234.349 601.758 231.985 601.096 228.55C600.309 224.45 600.513 221.15 601.705 218.741L604.096 219.925C603.457 221.213 602.873 223.669 603.716 228.046C604.638 232.845 603.966 235.963 601.717 237.321C601.012 237.747 600.193 237.957 599.288 237.957Z" fill="black" style="fill:black;fill-opacity:1;"/>
<path d="M696.872 252.522L694.963 250.66L730.666 214.097C743.203 201.257 763.512 200.56 776.9 212.512L775.124 214.501C762.803 203.501 744.114 204.144 732.574 215.96L696.872 252.522Z" fill="black" style="fill:black;fill-opacity:1;"/>
<path d="M742.093 297.485L740.202 295.604L776.439 259.214L778.33 261.096L742.093 297.485Z" fill="black" style="fill:black;fill-opacity:1;"/>
<path d="M203.056 604.994L194.92 592.956C192.048 589.166 187.805 586.702 183.017 586.08C178.231 585.462 173.497 586.756 169.695 589.736L168.051 587.636C172.419 584.214 177.853 582.72 183.36 583.436C188.863 584.151 193.739 586.98 197.088 591.406L205.265 603.502L203.056 604.994Z" fill="black" style="fill:black;fill-opacity:1;"/>
<path d="M248.62 700.666L245.957 700.53L247.537 669.482L250.2 669.618L248.62 700.666Z" fill="black" style="fill:black;fill-opacity:1;"/>
<path d="M338.243 683.81L325.208 632.093L327.795 631.442L340.828 683.159L338.243 683.81Z" fill="black" style="fill:black;fill-opacity:1;"/>
</svg>
