<svg width="8" height="12" viewBox="0 0 8 12" xmlns="http://www.w3.org/2000/svg"><path d="M0.894457 5.25C0.331957 5.25 0.0272691 4.57031 0.449144 4.14844L3.54289 0.960938C3.66008 0.820312 3.84758 0.75 4.01164 0.75C4.17571 0.75 4.33977 0.820312 4.45696 0.960938L7.55071 4.14844C7.97258 4.57031 7.66789 5.25 7.10539 5.25H0.894457ZM7.10539 6.75C7.66789 6.75 7.97258 7.45312 7.55071 7.875L4.45696 11.0625C4.33977 11.2031 4.17571 11.25 4.01164 11.25C3.82414 11.25 3.66008 11.2031 3.54289 11.0625L0.449144 7.875C0.0272691 7.45312 0.331957 6.75 0.894457 6.75H7.10539Z"/></svg>